<?xml version="1.0" standalone="no"?>
<!DOCTYPE svg PUBLIC "-//W3C//DTD SVG 20010904//EN"
 "http://www.w3.org/TR/2001/REC-SVG-20010904/DTD/svg10.dtd">
<svg version="1.0" xmlns="http://www.w3.org/2000/svg"
 width="512.000000pt" height="512.000000pt" viewBox="0 0 512.000000 512.000000"
 preserveAspectRatio="xMidYMid meet">

<g transform="translate(0.000000,512.000000) scale(0.100000,-0.100000)"
fill="#000000" stroke="none">
<path d="M640 4800 l0 -320 637 0 638 0 -957 -957 -958 -958 1120 -1120 1120
-1120 1280 1280 1280 1280 -157 157 -158 158 -1470 0 -1470 0 735 735 735 735
-225 225 -225 225 -962 0 -963 0 0 -320z"/>
<path d="M4224 1347 c-270 -274 -304 -320 -350 -462 -34 -106 -43 -267 -20
-375 61 -292 328 -510 626 -510 237 0 462 139 568 350 111 221 94 497 -43 705
-36 55 -509 545 -525 545 -4 0 -119 -114 -256 -253z"/>
</g>
</svg>
