<?xml version="1.0" standalone="no"?>
<!DOCTYPE svg PUBLIC "-//W3C//DTD SVG 20010904//EN"
 "http://www.w3.org/TR/2001/REC-SVG-20010904/DTD/svg10.dtd">
<svg version="1.0" xmlns="http://www.w3.org/2000/svg"
 width="512.000000pt" height="512.000000pt" viewBox="0 0 512.000000 512.000000"
 preserveAspectRatio="xMidYMid meet">

<g transform="translate(0.000000,512.000000) scale(0.100000,-0.100000)"
fill="#000000" stroke="none">
<path d="M872 4057 l-872 -872 868 -868 c477 -477 872 -867 877 -867 13 0 695
682 695 695 0 5 -120 130 -267 277 l-268 268 767 0 c826 0 849 -1 978 -53 179
-73 336 -222 410 -391 63 -140 79 -340 41 -489 -67 -261 -275 -469 -540 -539
-62 -16 -119 -21 -303 -25 l-228 -6 0 -494 0 -495 278 5 c291 5 355 12 537 62
436 119 820 420 1052 826 236 414 286 943 133 1402 -185 552 -648 986 -1207
1132 -205 54 -224 55 -1100 55 -447 0 -813 3 -813 7 0 5 120 128 267 275 l268
268 -350 350 -350 350 -873 -873z"/>
</g>
</svg>
