<?xml version="1.0" encoding="UTF-8"?>
<svg version="1.1" xmlns="http://www.w3.org/2000/svg" width="512" height="512">
<path d="M0 0 C15.08408563 7.86757316 29.30276381 17.06836348 42.51904297 27.77319336 C43.41365234 28.47573242 44.30826172 29.17827148 45.22998047 29.90209961 C53.40526325 36.41115906 60.96488929 43.56435952 68.51904297 50.77319336 C69.31697266 51.52858398 70.11490234 52.28397461 70.93701172 53.06225586 C75.38898947 57.38094086 79.30522333 62.03784779 83.17919922 66.87866211 C84.71796274 68.78220764 86.28786153 70.66107114 87.89013672 72.51147461 C99.52188836 85.96708491 108.72093199 101.16703006 117.34863281 116.67407227 C118.08285925 117.99090141 118.82429948 119.30376161 119.57617188 120.6105957 C120.47450159 122.1734433 121.3417875 123.75402118 122.20654297 125.33569336 C122.66416016 126.16198242 123.12177734 126.98827148 123.59326172 127.83959961 C124.98975614 132.26477812 125.20710185 136.17995766 124.51904297 140.77319336 C123.12625872 144.68357995 121.23027776 148.21827512 119.20654297 151.83569336 C118.66400879 152.83721436 118.12147461 153.83873535 117.5625 154.87060547 C112.65515067 163.8046624 107.29516138 172.379805 101.51904297 180.77319336 C101.10444824 181.38453125 100.68985352 181.99586914 100.26269531 182.62573242 C93.96282391 191.88951478 86.97807928 200.42189292 79.51904297 208.77319336 C79.03757812 209.31250488 78.55611328 209.85181641 78.06005859 210.4074707 C69.71260243 219.71437187 61.13470351 228.76014291 51.51904297 236.77319336 C50.7659082 237.40499512 50.7659082 237.40499512 49.99755859 238.04956055 C12.16704504 269.61892639 -33.14907511 290.56382823 -81.54150391 299.57568359 C-129.9218913 307.9699219 -181.19001188 304.30841894 -227.41845703 287.39819336 C-255.43147164 276.74909059 -282.14858998 262.67178176 -305.48095703 243.77319336 C-306.37556641 243.0706543 -307.27017578 242.36811523 -308.19189453 241.64428711 C-316.36717731 235.13522766 -323.92680335 227.9820272 -331.48095703 220.77319336 C-332.27888672 220.01780273 -333.07681641 219.26241211 -333.89892578 218.48413086 C-338.35090353 214.16544586 -342.26713739 209.50853893 -346.14111328 204.66772461 C-347.6798768 202.76417908 -349.2497756 200.88531558 -350.85205078 199.03491211 C-362.48380242 185.57930181 -371.68284605 170.37935666 -380.31054688 154.87231445 C-381.04477331 153.55548531 -381.78621354 152.24262511 -382.53808594 150.93579102 C-383.43641566 149.37294342 -384.30370157 147.79236553 -385.16845703 146.21069336 C-385.62607422 145.3844043 -386.08369141 144.55811523 -386.55517578 143.70678711 C-387.9516702 139.2816086 -388.16901592 135.36642906 -387.48095703 130.77319336 C-386.08817279 126.86280677 -384.19219182 123.3281116 -382.16845703 119.71069336 C-381.35465576 118.20841187 -381.35465576 118.20841187 -380.52441406 116.67578125 C-375.61706473 107.74172432 -370.25707544 99.16658172 -364.48095703 90.77319336 C-364.0663623 90.16185547 -363.65176758 89.55051758 -363.22460938 88.9206543 C-356.92473797 79.65687194 -349.93999335 71.1244938 -342.48095703 62.77319336 C-341.99949219 62.23388184 -341.51802734 61.69457031 -341.02197266 61.13891602 C-332.67451649 51.83201485 -324.09661757 42.78624381 -314.48095703 34.77319336 C-313.72782227 34.1413916 -313.72782227 34.1413916 -312.95947266 33.49682617 C-275.1289591 1.92746033 -229.81283895 -19.01744151 -181.42041016 -28.02929688 C-119.16133003 -38.83155754 -56.14054553 -28.58997233 0 0 Z M-195.48095703 39.77319336 C-199.43649175 42.45636966 -202.97355976 45.5318745 -206.48095703 48.77319336 C-207.22861328 49.38163086 -207.97626953 49.99006836 -208.74658203 50.61694336 C-215.7772322 56.41845888 -221.12818479 63.45639323 -226.48095703 70.77319336 C-227.13193359 71.65749023 -227.78291016 72.54178711 -228.45361328 73.45288086 C-239.3934405 89.45144368 -244.84209034 108.62069325 -246.48095703 127.77319336 C-247.60040092 148.22457206 -243.78134214 168.47003514 -234.79345703 186.89819336 C-225.03733704 206.02847973 -210.79494334 220.79199457 -193.29345703 232.99584961 C-176.92647555 243.61392885 -157.93759822 249.69965097 -138.45629883 250.89770508 C-117.45182401 251.69877589 -97.11303603 247.63255856 -78.35083008 238.06298828 C-61.35865614 228.98641033 -47.75349757 216.29302514 -36.48095703 200.77319336 C-35.83255859 199.89147461 -35.18416016 199.00975586 -34.51611328 198.10131836 C-23.56533268 182.10970225 -18.11972673 162.92455998 -16.48095703 143.77319336 C-15.35714358 123.24198606 -19.16120222 103.16351503 -28.30395508 84.73461914 C-32.8738552 75.85126496 -37.6837449 68.12838559 -44.48095703 60.77319336 C-45.08939453 60.02553711 -45.69783203 59.27788086 -46.32470703 58.50756836 C-57.90430681 44.47466354 -74.70216594 34.34802863 -91.48095703 27.77319336 C-127.11025621 15.36347387 -163.53255037 20.00129621 -195.48095703 39.77319336 Z " fill="#000000" transform="translate(387.48095703125,120.226806640625)"/>
<path d="M0 0 C13.5956372 5.70822898 23.7133944 14.87925924 32.75537109 26.30761719 C39.49349461 35.60518297 43.52358324 46.95270676 45.14208984 58.26855469 C46.36220337 72.77238192 45.51327964 86.83081463 39.41162109 100.19824219 C33.29543838 112.72632482 24.75937586 123.41360357 13.14208984 131.26855469 C0.85970894 138.44926547 -11.1930098 143.30667089 -25.546875 143.51074219 C-41.21861033 143.55335013 -53.32590408 141.00261661 -67.015625 133.34033203 C-78.20676446 126.82971684 -86.72092553 118.47259274 -93.17041016 107.26855469 C-100.53902602 93.96753317 -103.28129984 81.87481819 -103.22143555 66.74316406 C-102.98125897 53.97644458 -99.86173283 42.81143344 -93.83837891 31.52246094 C-86.81843544 19.98870767 -77.29025443 10.8997495 -65.81494141 3.87011719 C-45.84264027 -6.94711328 -21.12689394 -8.3174999 0 0 Z " fill="#000000" transform="translate(284.85791015625,186.7314453125)"/>
</svg>
