<?xml version="1.0" standalone="no"?>
<!DOCTYPE svg PUBLIC "-//W3C//DTD SVG 20010904//EN"
 "http://www.w3.org/TR/2001/REC-SVG-20010904/DTD/svg10.dtd">
<svg version="1.0" xmlns="http://www.w3.org/2000/svg"
 width="512.000000pt" height="512.000000pt" viewBox="0 0 512.000000 512.000000"
 preserveAspectRatio="xMidYMid meet">

<g transform="translate(0.000000,512.000000) scale(0.100000,-0.100000)"
fill="#000000" stroke="none">
<path d="M1739 5101 l-24 -19 -3 -1096 -2 -1096 -459 0 c-431 0 -459 -1 -474
-18 -46 -51 -80 -14 871 -965 703 -703 892 -887 912 -887 20 0 209 184 913
888 794 794 887 890 887 918 0 66 13 64 -493 64 l-457 0 -2 1096 -3 1096 -24
19 c-22 18 -50 19 -821 19 -771 0 -799 -1 -821 -19z"/>
<path d="M900 653 c-8 -3 -23 -12 -32 -21 -16 -14 -18 -41 -18 -304 0 -275 1
-289 20 -308 20 -20 33 -20 1690 -20 1657 0 1670 0 1690 20 19 19 20 33 20
308 0 281 -1 289 -21 308 -21 19 -64 19 -1678 21 -911 1 -1663 -1 -1671 -4z"/>
</g>
</svg>
