<?xml version="1.0" standalone="no"?>
<!DOCTYPE svg PUBLIC "-//W3C//DTD SVG 20010904//EN"
 "http://www.w3.org/TR/2001/REC-SVG-20010904/DTD/svg10.dtd">
<svg version="1.0" xmlns="http://www.w3.org/2000/svg"
 width="512.000000pt" height="512.000000pt" viewBox="0 0 512.000000 512.000000"
 preserveAspectRatio="xMidYMid meet">

<g transform="translate(0.000000,512.000000) scale(0.100000,-0.100000)"
fill="#000000" stroke="none">
<path d="M430 4480 l0 -210 210 0 210 0 0 210 0 210 -210 0 -210 0 0 -210z"/>
<path d="M1280 4480 l0 -210 215 0 215 0 0 210 0 210 -215 0 -215 0 0 -210z"/>
<path d="M2130 4480 l0 -210 215 0 215 0 0 210 0 210 -215 0 -215 0 0 -210z"/>
<path d="M2990 4480 l0 -210 210 0 210 0 0 210 0 210 -210 0 -210 0 0 -210z"/>
<path d="M430 3625 l0 -215 210 0 210 0 0 215 0 215 -210 0 -210 0 0 -215z"/>
<path d="M2988 3628 l-3 -213 -570 -5 -570 -5 -38 -24 c-21 -13 -50 -42 -65
-64 l-27 -41 -5 -570 -5 -571 -212 -3 -213 -2 0 -210 0 -210 213 -2 212 -3 5
-571 5 -571 27 -39 c15 -21 44 -50 65 -64 l37 -25 573 -3 573 -2 0 210 0 210
-427 2 -428 3 0 1065 0 1065 1065 0 1065 0 3 -317 2 -318 210 0 211 0 -3 463
-3 464 -27 39 c-15 21 -44 50 -65 64 l-37 25 -570 5 -571 5 -3 213 -2 212
-210 0 -210 0 -2 -212z"/>
<path d="M430 2775 l0 -215 210 0 210 0 0 215 0 215 -210 0 -210 0 0 -215z"/>
<path d="M3417 1493 c3 -466 5 -851 6 -855 1 -4 107 94 235 219 130 126 237
222 241 217 5 -5 104 -175 221 -379 117 -203 218 -375 224 -381 8 -9 57 15
193 94 l182 106 -18 31 c-143 235 -431 749 -422 754 6 4 142 44 303 90 161 46
296 86 300 90 7 6 -1407 838 -1453 856 -15 6 -16 -64 -12 -842z"/>
<path d="M430 1920 l0 -210 210 0 210 0 0 210 0 210 -210 0 -210 0 0 -210z"/>
</g>
</svg>
