<?xml version="1.0" encoding="UTF-8" standalone="no"?>
<!-- Created with Inkscape (http://www.inkscape.org/) -->

<svg
   width="256"
   height="256"
   viewBox="0 0 67.73333 67.733335"
   version="1.1"
   id="svg1"
   xml:space="preserve"
   xmlns="http://www.w3.org/2000/svg"
   xmlns:svg="http://www.w3.org/2000/svg"><defs
     id="defs1" /><g
     id="layer1"><path
       id="path1"
       style="display:inline;stroke-width:0.131962"
       d="m 33.995341,0.00155029 c -1.060058,-0.01795942 -2.128105,0.14552758 -3.159497,0.50177815 -2.36929,0.97091186 -4.268568,2.57663146 -5.355229,4.94078366 -0.93509,2.4607493 -0.94552,4.9140659 0.03824,7.3587239 0.714285,1.552565 1.916025,3.311383 3.554822,3.993038 0.464485,0.170985 0.464508,0.171017 0.875916,0.375171 0.465037,0.601304 0.464883,0.601105 0.475423,1.382344 l -5.17e-4,0.387057 c 0.0098,0.450629 0.01819,0.900594 0.01809,1.351338 -1.23096,-0.0027 -2.461836,-0.0048 -3.692798,-0.0062 -0.627124,-7e-4 -1.254416,-0.0013 -1.881539,-0.0026 -0.614819,-0.0014 -1.229512,-0.0026 -1.844332,-0.0031 -0.233355,-1.15e-4 -0.466861,-2.71e-4 -0.700215,-5.17e-4 -0.337022,-0.001 -0.673768,-0.002 -1.010791,-0.0021 h -0.308509 c -0.607935,-0.003 -1.015095,-0.01939 -1.526521,0.341581 -0.313328,0.414152 -0.313162,0.414134 -0.328662,1.221114 10e-4,0.178188 0.0011,0.177775 0.0021,0.352434 -0.0017,0.247856 -0.0032,0.495762 -0.0041,0.743623 0.0025,0.389915 0.0045,0.779534 0,1.169438 -0.0033,0.254755 -0.005,0.509518 -0.0052,0.764294 2.99e-4,0.124495 7.15e-4,0.245552 10e-4,0.366386 -0.0018,0.119692 -0.004,0.235745 -0.0057,0.351917 0.0017,0.112519 0.0036,0.22152 0.0052,0.330729 6.56e-4,0.492679 6.7e-4,0.492629 0.743107,1.235067 h 10.556978 v 4.149617 l 11.03238,-11.032353 c -0.04226,1.43e-4 -0.08435,3.82e-4 -0.126607,5.17e-4 -1.032363,0.0033 -2.065137,0.0074 -3.097485,0.01395 -0.321815,0.0022 -0.633846,0.0046 -0.946196,0.0067 0.04486,-0.942211 0.08823,-1.856909 0.131775,-2.771407 1.126601,-0.450641 2.094102,-1.082217 2.925403,-1.969389 0.0822,-0.09324 0.162066,-0.183385 0.241846,-0.273885 0.159732,-0.178789 0.31657,-0.360656 0.470255,-0.544669 1.503672,-2.011762 2.121515,-4.367877 1.862936,-6.8559125 C 42.563327,5.2313578 41.107673,3.1729136 39.020357,1.5533935 37.506706,0.56572182 35.762104,0.03148266 33.995341,0.00155029 Z m 0.124023,5.77587481 c 0.155017,0.00547 0.311825,0.018966 0.470256,0.041341 0.909943,0.2388772 1.719364,0.8651217 2.212268,1.6634643 0.483005,0.9458145 0.525978,1.8673603 0.222208,2.8799276 -0.510871,0.885511 -1.047237,1.467697 -1.992643,1.894975 -0.925512,0.295904 -1.786047,0.239882 -2.667021,-0.163298 -0.938044,-0.537312 -1.481201,-1.334449 -1.790071,-2.3585121 -0.164356,-1.0558633 0.09507,-1.9120769 0.717785,-2.7683065 0.750963,-0.8484429 1.742101,-1.227856 2.827218,-1.1895913 z M 46.985762,20.242692 c -0.09799,0.0015 -0.192728,0.0027 -0.287838,0.0041 -0.322883,-2e-4 -0.646061,2.01e-4 -0.968933,0.0031 -0.230385,0.0022 -0.460521,0.0039 -0.690914,0.0047 -0.185177,3.07e-4 -0.370349,4.5e-4 -0.555521,0.001 l -6.898287,6.898287 h 5.988265 l 4.984708,-4.984709 c -0.0013,-0.11978 -0.0027,-0.239369 -0.0041,-0.359151 -0.0022,-0.112111 -0.0041,-0.221399 -0.0062,-0.330212 -0.0058,-0.328754 -0.0095,-0.495462 -0.157613,-0.791683 -0.459785,-0.355563 -0.825343,-0.441951 -1.403532,-0.445451 z m 1.604036,4.886523 -2.024682,2.024683 h 1.296561 c 0.659815,-0.659811 0.659777,-0.659765 0.740007,-0.947746 -0.0011,-0.09912 -0.0021,-0.195255 -0.0031,-0.291455 3.52e-4,-0.113397 6.58e-4,-0.223251 10e-4,-0.333313 -0.0031,-0.120545 -0.0063,-0.237499 -0.0093,-0.3545 -1.66e-4,-0.03244 -3.34e-4,-0.06523 -5.17e-4,-0.09767 z m -11.285099,2.304252 -6.862113,6.862114 v 5.988265 l 6.862113,-6.862114 z m -25.953454,6.381006 c -0.101202,3.59e-4 -0.206373,0.0054 -0.31781,0.01137 -0.461625,0.106239 -0.461542,0.106471 -3.4860922,3.819405 -0.3158157,0.388261 -0.6340214,0.774093 -0.958081,1.155485 -0.2492577,0.292507 -0.4973826,0.585864 -0.7446574,0.88005 -0.1138992,0.135534 -0.2284817,0.270759 -0.3431315,0.40566 -0.2652866,0.299309 -0.5236806,0.597989 -0.7679118,0.914672 -0.2670632,0.468687 -0.238744,0.801682 -0.155546,1.328601 0.5995506,0.59955 1.0954492,0.708537 1.9197794,0.741557 0.123998,0.003 0.2444845,0.0063 0.3648356,0.0093 0.3488501,0.0128 0.6975019,0.02524 1.0464478,0.03514 0.078813,0.002 0.1555321,0.0038 0.2320271,0.0057 0.5001375,2.68532 1.4427172,5.305493 2.809648,7.67395 l 5.357295,-5.357295 c -0.339256,-0.736179 -0.641761,-1.508121 -0.908988,-2.316655 0.132673,-0.0082 0.261386,-0.01629 0.390157,-0.02429 0.256932,-0.01693 0.256651,-0.01649 0.508496,-0.03307 0.481135,-0.0309 0.887092,-0.05368 1.344621,-0.206189 0.371636,-0.361018 0.516327,-0.571731 0.583427,-1.089856 -0.0579,-0.513625 -0.188108,-0.760833 -0.511597,-1.158069 L 17.51831,40.383581 c -0.134461,-0.162784 -0.268975,-0.325687 -0.403593,-0.488342 -0.238417,-0.281478 -0.473479,-0.564033 -0.7059,-0.850594 -0.524904,-0.650653 -1.062575,-1.29023 -1.603519,-1.927531 -0.353914,-0.41583 -0.70548,-0.83271 -1.049549,-1.256771 -0.196503,-0.243957 -0.394818,-0.486576 -0.594279,-0.728121 -0.09184,-0.11024 -0.180611,-0.217531 -0.269751,-0.324528 -0.2174,-0.270806 -0.43402,-0.525033 -0.682128,-0.767912 -0.287734,-0.185274 -0.554739,-0.226387 -0.858346,-0.225309 z m 45.079418,0.0036 c -0.652382,0.08284 -0.880144,0.271925 -1.307413,0.757577 -0.481254,0.606286 -0.967381,1.206996 -1.468645,1.796789 -0.507224,0.595495 -1.010468,1.193699 -1.5043,1.800407 -0.256934,0.316189 -0.514249,0.631813 -0.777731,0.942578 -0.06596,0.07718 -0.129766,0.15195 -0.193786,0.22686 -0.129631,0.151805 -0.259298,0.303631 -0.389124,0.455269 -0.443526,0.512439 -0.860963,1.026599 -1.212329,1.608171 -0.06465,0.549529 -0.04738,0.721646 0.26355,1.188041 0.386899,0.293485 0.644052,0.393191 1.128613,0.463021 0.168779,0.0079 0.332283,0.01555 0.496094,0.02325 0.253287,0.01328 0.253507,0.01335 0.501778,0.02636 0.129521,0.0051 0.255149,0.01009 0.380855,0.01499 -0.04116,0.176633 -0.08564,0.352735 -0.131775,0.528134 -1.599692,4.655618 -4.687812,8.257399 -9.119856,10.434505 -0.08481,0.04149 -0.167287,0.08222 -0.249597,0.122473 -2.67382,1.109246 -2.673704,1.10921 -5.542298,1.847432 V 36.414314 l -6.862113,6.862114 v 12.777514 c -1.996184,-0.499044 -3.92939,-1.021049 -5.772258,-1.946134 -1.125756,-0.586909 -2.15389,-1.242369 -3.089217,-1.969906 l -5.049304,5.049304 c 3.89352,3.167951 8.442705,5.076931 13.450342,5.797062 0.156509,0.02156 0.308531,0.04266 0.460437,0.06356 -0.0032,0.111467 -0.0063,0.219444 -0.0093,0.327629 -0.0025,0.146519 -0.0048,0.288771 -0.0072,0.430981 -0.0032,0.145118 -0.0063,0.285999 -0.0093,0.426848 0.04498,0.694436 0.33447,1.001729 0.822172,1.488798 0.07129,0.06945 0.140616,0.136722 0.209806,0.204122 0.14382,0.140559 0.287854,0.280953 0.432015,0.421163 0.136692,0.131516 0.273131,0.263238 0.409277,0.395324 0.507654,0.518914 0.872119,0.973244 1.632976,0.989604 0.674695,-0.09306 0.674579,-0.09312 2.023649,-1.472778 0.14392,-0.147656 0.288577,-0.29471 0.434082,-0.4408 0.191882,-0.173567 0.382528,-0.348753 0.569474,-0.527617 0.463704,-0.529947 0.463636,-0.530048 0.387056,-1.90531 -0.01104,-0.114968 -0.02184,-0.226372 -0.03256,-0.337964 4.493168,-0.61888 8.545655,-2.107517 12.346533,-4.585766 5.148277,-3.453798 8.597862,-8.87242 9.862964,-14.890564 0.03138,-0.153004 0.06151,-0.301598 0.09198,-0.450102 0.3063,-0.013 0.612547,-0.02632 0.918807,-0.04031 0.127856,-0.0059 0.252109,-0.01187 0.376204,-0.01757 0.126275,-0.0053 0.24899,-0.0103 0.371554,-0.0155 0.121367,-0.0057 0.238766,-0.01104 0.356567,-0.01654 0.205596,-0.0092 0.411089,-0.02253 0.615983,-0.04186 0.463717,-0.154572 0.632677,-0.268168 0.923975,-0.659908 0.08469,-0.656388 0.07967,-1.076631 -0.33693,-1.618505 -0.06485,-0.07782 -0.128263,-0.153397 -0.191203,-0.228927 -0.623773,-0.781658 -1.266132,-1.546935 -1.913062,-2.30942 C 60.377994,37.761165 60.02966,37.348649 59.687829,36.930045 59.199478,36.326839 58.70537,35.732802 58.187662,35.154443 58.00038,34.95131 57.813538,34.747936 57.626973,34.544144 57.515581,34.405607 57.402822,34.26789 57.288492,34.131766 56.948496,33.870236 56.842704,33.83778 56.430663,33.81809 Z m -39.084952,13.574365 -5.223454,5.223454 c 0.822972,1.150621 1.758814,2.220668 2.803964,3.184302 l 5.060156,-5.060156 c -1.013697,-1.002448 -1.891124,-2.116342 -2.640666,-3.3476 z" /><path
       style="display:inline;fill:#000000;fill-opacity:1;stroke:none;stroke-width:0.132027;stroke-dasharray:none"
       d="M 57.021483,7.7167969 60.015625,10.710938 10.710938,60.015625 7.7167969,57.021483 Z"
       id="path19" /></g></svg>
