<?xml version="1.0" encoding="UTF-8" standalone="no"?>
<!-- Created with Inkscape (http://www.inkscape.org/) -->

<svg
   width="256"
   height="256"
   viewBox="0 0 67.73333 67.733335"
   version="1.1"
   id="svg1"
   xml:space="preserve"
   xmlns="http://www.w3.org/2000/svg"
   xmlns:svg="http://www.w3.org/2000/svg"><defs
     id="defs1" /><g
     id="layer1"><g
       id="g1"
       transform="matrix(0.13209646,0,0,0.13209646,0.04997233,0.04145211)"><path
         d="m 0,0 c 15.084086,7.8675732 29.302764,17.068363 42.519043,27.773193 0.894609,0.702539 1.789219,1.405078 2.710937,2.128907 8.175283,6.509059 15.734909,13.66226 23.289063,20.871093 0.79793,0.755391 1.595859,1.510782 2.417969,2.289063 4.451977,4.318685 8.368211,8.975592 12.242187,13.816406 1.538764,1.903546 3.108663,3.782409 4.710938,5.632813 11.631751,13.45561 20.830793,28.655555 29.458493,44.162595 0.73423,1.31683 1.47567,2.62969 2.22754,3.93653 0.89833,1.56284 1.76562,3.14342 2.63037,4.72509 0.45762,0.82629 0.91524,1.65258 1.38672,2.50391 1.3965,4.42518 1.61384,8.34036 0.92578,12.93359 -1.39278,3.91039 -3.28876,7.44509 -5.3125,11.0625 -0.54253,1.00152 -1.08507,2.00305 -1.64404,3.03492 -4.90735,8.93405 -10.26734,17.50919 -16.04346,25.90258 -0.41459,0.61134 -0.82919,1.22268 -1.25634,1.85254 -6.299876,9.26378 -13.284621,17.79616 -20.743657,26.14746 -0.481465,0.53931 -0.96293,1.07863 -1.458984,1.63428 -8.347457,9.3069 -16.925355,18.35267 -26.541016,26.36572 -0.753135,0.63181 -0.753135,0.63181 -1.521484,1.27637 -37.830514,31.56937 -83.146634,52.51427 -131.539063,61.52612 -48.380386,8.39424 -99.648506,4.73274 -145.876956,-12.17749 -28.01301,-10.6491 -54.73013,-24.72641 -78.0625,-43.625 -0.89461,-0.70254 -1.78922,-1.40507 -2.71093,-2.1289 -8.17529,-6.50906 -15.73491,-13.66226 -23.28907,-20.8711 -0.79793,-0.75539 -1.59586,-1.51078 -2.41797,-2.28906 -4.45197,-4.31868 -8.36821,-8.97559 -12.24218,-13.81641 -1.53877,-1.90354 -3.10867,-3.7824 -4.71094,-5.63281 -11.63175,-13.45561 -20.8308,-28.65555 -29.4585,-44.1626 -0.73422,-1.31682 -1.47566,-2.62968 -2.22754,-3.93652 -0.89833,-1.56285 -1.76561,-3.14342 -2.63037,-4.7251 -0.45761,-0.82629 -0.91523,-1.65257 -1.38672,-2.5039 -1.39649,-4.42518 -1.61384,-8.34036 -0.92578,-12.9336 1.39279,-3.91038 3.28877,-7.44508 5.3125,-11.0625 0.8138,-1.50228 0.8138,-1.50228 1.64405,-3.03491 4.90735,-8.93406 10.26733,-17.509198 16.04345,-25.902587 0.4146,-0.611338 0.82919,-1.222675 1.25635,-1.852539 6.29987,-9.263782 13.28462,-17.79616 20.74365,-26.147461 0.48147,-0.539311 0.96293,-1.078623 1.45899,-1.634277 8.34745,-9.306901 16.92535,-18.352672 26.54101,-26.365723 0.75314,-0.631801 0.75314,-0.631801 1.52149,-1.276367 37.83051,-31.5693657 83.14663,-52.514268 131.53906,-61.526123 C -119.16133,-38.831558 -56.140546,-28.589972 0,0 Z m -195.48096,39.773193 c -3.95553,2.683177 -7.4926,5.758681 -11,9 -0.74765,0.608438 -1.49531,1.216875 -2.26562,1.84375 -7.03065,5.801516 -12.3816,12.83945 -17.73438,20.15625 -0.65097,0.884297 -1.30195,1.768594 -1.97265,2.679688 -10.93983,15.998563 -16.38848,35.167809 -18.02735,54.320309 -1.11944,20.45138 2.69962,40.69685 11.6875,59.125 9.75612,19.13029 23.99852,33.8938 41.5,46.09766 16.36698,10.61808 35.35586,16.7038 54.83716,17.90186 21.00448,0.80107 41.343264,-3.26515 60.10547,-12.83472 16.992174,-9.07658 30.597332,-21.76996 41.869873,-37.2898 0.648398,-0.88172 1.296797,-1.76343 1.964844,-2.67187 10.95078,-15.99162 16.396386,-35.17676 18.035156,-54.32813 1.123813,-20.5312 -2.680245,-40.60967 -11.822998,-59.038571 -4.5699,-8.883354 -9.37979,-16.606233 -16.177002,-23.961426 -0.608438,-0.747656 -1.216875,-1.495312 -1.84375,-2.265625 -11.5796,-14.032904 -28.377459,-24.159539 -45.15625,-30.734375 -35.629303,-12.409719 -72.051593,-7.771897 -104.000003,12 z"
         fill="#000000"
         transform="translate(387.48096,120.22681)"
         id="path1" /><path
         d="m 0,0 c 13.595637,5.708229 23.713394,14.879259 32.755371,26.307617 6.738124,9.297566 10.768212,20.64509 12.386719,31.960938 1.220113,14.503827 0.37119,28.56226 -5.730469,41.929685 -6.116183,12.52808 -14.652245,23.21536 -26.269531,31.07031 -12.28238106,7.18072 -24.3351,12.03812 -38.688965,12.24219 -15.671735,0.0426 -27.779029,-2.50812 -41.46875,-10.17041 -11.191139,-6.51061 -19.705301,-14.86774 -26.154785,-26.07178 -7.36862,-13.301017 -10.11089,-25.393732 -10.05103,-40.525386 0.24018,-12.766719 3.359707,-23.931731 9.383061,-35.220703 C -86.818435,19.988708 -77.290254,10.89975 -65.814941,3.8701172 -45.84264,-6.9471133 -21.126894,-8.3174999 0,0 Z"
         fill="#000000"
         transform="translate(284.85791,186.73145)"
         id="path2" /></g><g
       id="path3"
       style="opacity:1"><path
         style="baseline-shift:baseline;display:inline;overflow:visible;vector-effect:none;fill:#ffffff;enable-background:accumulate;stop-color:#000000;stop-opacity:1"
         d="M 8.4666666,59.266666 59.266666,8.4666666"
         id="path5" /><path
         style="baseline-shift:baseline;display:inline;overflow:visible;stroke:#ffffff;stroke-width:2.11667;stroke-dasharray:none;stroke-opacity:1;enable-background:accumulate;stop-color:#000000;stop-opacity:1"
         d="M 57.021484,6.2207031 6.2207031,57.021484 10.710938,61.511719 61.511719,10.710938 Z"
         id="path6" /></g></g></svg>
