<?xml version="1.0" standalone="no"?>
<!DOCTYPE svg PUBLIC "-//W3C//DTD SVG 20010904//EN"
 "http://www.w3.org/TR/2001/REC-SVG-20010904/DTD/svg10.dtd">
<svg version="1.0" xmlns="http://www.w3.org/2000/svg"
 width="512.000000pt" height="512.000000pt" viewBox="0 0 512.000000 512.000000"
 preserveAspectRatio="xMidYMid meet">

<g transform="translate(0.000000,512.000000) scale(0.100000,-0.100000)"
fill="#000000" stroke="none">
<path d="M525 5104 c-195 -42 -368 -178 -455 -359 -106 -220 -88 -466 51 -672
17 -27 289 -306 603 -621 l571 -572 -110 -110 -110 -110 183 -183 182 -182
692 693 693 692 -182 182 -183 183 -110 -110 -110 -110 -572 571 c-315 314
-594 586 -621 603 -157 106 -341 143 -522 105z"/>
<path d="M2345 2770 l-470 -470 125 -125 125 -125 945 0 945 0 -595 595 c-327
327 -597 595 -600 595 -3 0 -217 -211 -475 -470z"/>
<path d="M2440 1742 c0 -4 260 -266 578 -582 609 -607 620 -616 764 -668 62
-22 93 -27 208 -30 l135 -3 230 -230 230 -229 268 268 267 267 -229 229 -229
229 -4 136 c-6 220 -51 317 -231 507 l-109 114 -939 0 c-516 0 -939 -4 -939
-8z"/>
</g>
</svg>
