<?xml version="1.0" standalone="no"?>
<!DOCTYPE svg PUBLIC "-//W3C//DTD SVG 20010904//EN"
 "http://www.w3.org/TR/2001/REC-SVG-20010904/DTD/svg10.dtd">
<svg version="1.0" xmlns="http://www.w3.org/2000/svg"
 width="512.000000pt" height="512.000000pt" viewBox="0 0 512.000000 512.000000"
 preserveAspectRatio="xMidYMid meet">

<g transform="translate(0.000000,512.000000) scale(0.100000,-0.100000)"
fill="#000000" stroke="none">
<path d="M162 5089 c-69 -34 -104 -71 -138 -144 l-24 -50 0 -1827 c0 -1082 4
-1828 9 -1828 29 0 231 79 319 125 301 156 533 411 674 738 72 166 98 279 143
623 28 217 50 312 98 423 107 246 334 471 568 561 165 63 256 81 667 130 301
36 393 70 508 184 119 119 187 292 215 543 11 104 7 394 -7 506 l-7 47 -1482
0 -1482 0 -61 -31z"/>
<path d="M3115 1275 c-190 -35 -385 -149 -588 -343 -206 -198 -409 -463 -631
-824 l-66 -108 944 0 944 0 6 28 c17 77 37 244 47 380 17 256 -11 476 -82 619
-99 203 -315 296 -574 248z"/>
</g>
</svg>
