<?xml version="1.0" encoding="UTF-8" standalone="no"?>
<!-- Created with Inkscape (http://www.inkscape.org/) -->

<svg
   width="256"
   height="256"
   viewBox="0 0 67.73333 67.733335"
   version="1.1"
   id="svg1"
   xml:space="preserve"
   xmlns="http://www.w3.org/2000/svg"
   xmlns:svg="http://www.w3.org/2000/svg"><defs
     id="defs1" /><g
     id="layer1"><g
       transform="matrix(0.03527778,0,0,-0.03527778,-61.736117,120.70298)"
       fill="#000000"
       stroke="none"
       id="g10"><g
         id="g12"
         transform="matrix(0.37499995,0,0,0.37499995,1750.0001,1501.8768)"><path
           d="m 0,4144 v -979 l 755,755 c 415,415 753,755 752,756 -1,1 -335,100 -742,219 C 358,5015 19,5115 13,5117 3,5121 0,4922 0,4144 Z"
           id="path1" /><path
           d="m 4437,4552 -218,-218 148,-558 -176,-485 c 0,0 -41,-57 -41,-60 0,-3 218,-224 485,-491 l 485,-485 v 1190 1190 l -221,65 c -122,36 -227,66 -233,68 -6,1 -109,-96 -229,-216 z"
           id="path3" /><path
           d="M 552,3237 0,2685 v -370 -370 l 737,737 738,738 -185,185 -185,185 z"
           id="path5" /><path
           d="M 857,2322 0,1465 V 1025 585 l 1077,1077 1078,1078 -220,220 -220,220 z"
           id="path6" /><path
           d="m 2477,2592 c -251,-251 -457,-462 -457,-467 0,-6 223,-233 495,-505 l 495,-495 690,690 690,690 -229,229 -228,228 -228,-288 c -125,-159 -231,-289 -235,-289 -5,0 -122,144 -260,320 -139,176 -257,326 -264,332 -9,10 -113,-89 -469,-445 z"
           id="path7" /><path
           d="M 3937,1572 3250,885 3488,647 3725,410 4401,211 C 4773,102 5087,9 5099,5 l 21,-6 v 888 888 l -243,243 c -133,133 -244,242 -247,242 -3,0 -314,-309 -693,-688 z"
           id="path8" /><path
           d="M 1026,1141 287,402 371,376 c 46,-14 223,-66 394,-116 l 310,-90 602,602 603,603 -252,252 c -139,139 -255,253 -258,253 -3,0 -338,-333 -744,-739 z"
           id="path9" /><path
           d="M 1980,595 C 1633,248 1451,59 1460,56 c 8,-3 54,-16 102,-31 l 87,-25 787,210 c 433,115 789,212 792,215 7,7 -689,705 -703,705 -6,0 -251,-241 -545,-535 z"
           id="path10" /><path
           style="display:inline;fill:#000000;stroke:none;stroke-width:60;paint-order:stroke fill markers"
           d="M 3982,4567 2727,3312 2390,2975 1340,4025 2059,4744 3462.0001,5119 4286,4877 Z"
           id="path11" /><path
           style="fill:#000000;stroke:none;stroke-width:34.8346;paint-order:stroke fill markers"
           d="m 3919.2778,4059.0015 -712.3448,-778.3431 317.2478,-367.6884 256.9523,344.1702 120.4581,160.4769 22.5734,35.6441 92.2923,284.9743 z"
           id="path12" /></g></g></g></svg>
