<?xml version="1.0" encoding="UTF-8"?>
<svg version="1.1" xmlns="http://www.w3.org/2000/svg" width="512" height="512">
<path d="M0 0 C15.81752271 12.27260273 26.84866748 27.8691997 29.6796875 47.91796875 C31.6391806 66.77211578 26.95721156 84.6300206 15.5625 99.875 C14.39788635 101.26943763 13.2104383 102.64514932 12 104 C11.39542969 104.68578125 10.79085938 105.3715625 10.16796875 106.078125 C3.86843604 112.80104789 -3.46270259 117.58508104 -12 121 C-12.33 127.93 -12.66 134.86 -13 142 C-10.63303955 141.98428955 -8.2660791 141.9685791 -5.82739258 141.95239258 C1.99566453 141.9026689 9.81872865 141.8695399 17.64190197 141.84456348 C22.38480683 141.8289119 27.1275497 141.80768285 31.87036133 141.77368164 C36.44800215 141.74107015 41.02548721 141.72314316 45.60323524 141.71536827 C47.34913904 141.70982798 49.09503438 141.69900911 50.84087181 141.68280983 C53.28757482 141.66101158 55.73363533 141.65803405 58.18041992 141.65942383 C58.90115189 141.648638 59.62188385 141.63785217 60.36445618 141.6267395 C64.74593708 141.65364454 67.51578964 142.30555458 71 145 C72.12237281 147.24474563 72.14877721 148.51190399 72.19287109 151.00317383 C72.20893402 151.82775589 72.22499695 152.65233795 72.24154663 153.50190735 C72.28602528 157.27478199 72.32706263 161.04748109 72.35009766 164.82055664 C72.36665551 166.80993347 72.39394328 168.79925085 72.43212891 170.78833008 C72.48692264 173.65737755 72.50877517 176.52503087 72.5234375 179.39453125 C72.54610687 180.28114944 72.56877625 181.16776764 72.59213257 182.08125305 C72.58928253 182.9152916 72.5864325 183.74933014 72.58349609 184.60864258 C72.59158295 185.3376326 72.5996698 186.06662262 72.60800171 186.81770325 C72 189 72 189 67 194 C40.6 194 14.2 194 -13 194 C-13 266.27 -13 338.54 -13 413 C8.73798749 407.40578636 8.73798749 407.40578636 29 399 C29.62374512 398.69481445 30.24749023 398.38962891 30.89013672 398.07519531 C64.47582947 381.57726021 87.8776477 354.27990688 100 319 C100.34959127 317.67083679 100.68811359 316.33851252 101 315 C100.04738281 314.96261719 99.09476562 314.92523438 98.11328125 314.88671875 C96.23189453 314.78810547 96.23189453 314.78810547 94.3125 314.6875 C93.07113281 314.62949219 91.82976562 314.57148438 90.55078125 314.51171875 C86.87879272 313.98253228 84.93188489 313.22400638 82 311 C79.64379563 307.46569344 79.51008387 306.16428713 80 302 C82.66263163 297.59288558 85.82646612 293.6957284 89.1875 289.8125 C90.17131932 288.66339904 91.15438171 287.51364963 92.13671875 286.36328125 C92.62188965 285.79561035 93.10706055 285.22793945 93.60693359 284.64306641 C95.603574 282.28810848 97.55298338 279.8960583 99.5 277.5 C103.24221748 272.90241852 107.05497328 268.37052709 110.89868164 263.85791016 C114.69721404 259.38849767 118.38046524 254.83657276 122.02734375 250.2421875 C125.26518198 246.56195157 126.9938148 245.12776955 131.9375 244.5 C135.05990827 244.64923275 135.8610474 244.89311338 138.4375 246.875 C139.30387413 247.90653575 140.15588263 248.95017335 141 250 C142.41377442 251.54431941 143.83078511 253.08567884 145.25 254.625 C149.17312409 259.00776404 152.91650646 263.51098098 156.6171875 268.08203125 C159.20756521 271.25418231 161.84710406 274.3801907 164.5 277.5 C169.4023597 283.27805622 174.27309163 289.07665424 179 295 C179.47695313 295.57234375 179.95390625 296.1446875 180.4453125 296.734375 C183.60229271 300.84065695 183.64181316 304.02594803 183 309 C180.79259319 311.96858157 179.51402627 312.82865791 176 314 C174.44733347 314.1464714 172.89004338 314.24694074 171.33203125 314.31640625 C170.43935547 314.35830078 169.54667969 314.40019531 168.62695312 314.44335938 C167.69818359 314.48267578 166.76941406 314.52199219 165.8125 314.5625 C164.87212891 314.60568359 163.93175781 314.64886719 162.96289062 314.69335938 C160.64207146 314.79938665 158.32114675 314.90145029 156 315 C155.76925781 316.12535156 155.53851563 317.25070312 155.30078125 318.41015625 C145.71392711 364.0151913 119.57577236 405.07738098 80.5625 431.25 C51.75973254 450.02999197 21.04888816 461.31017554 -13 466 C-12.91878906 466.845625 -12.83757812 467.69125 -12.75390625 468.5625 C-12.17361111 478.98412698 -12.17361111 478.98412698 -15.6875 483 C-17.10416439 484.35545049 -18.54593393 485.68475254 -20 487 C-21.10262623 488.10706955 -22.19844052 489.22094639 -23.2890625 490.33984375 C-33.5122117 500.79478782 -33.5122117 500.79478782 -38.625 501.5 C-44.39071874 501.37600605 -47.1530365 497.93230569 -51 494 C-52.03170249 492.99907945 -53.06571717 492.00053878 -54.1015625 491.00390625 C-55.1940018 489.94143249 -56.28514772 488.87762727 -57.375 487.8125 C-57.89932617 487.30170898 -58.42365234 486.79091797 -58.96386719 486.26464844 C-62.6596331 482.57370414 -64.85448417 480.24676437 -65.1953125 474.984375 C-65.17210937 473.91703125 -65.14890625 472.8496875 -65.125 471.75 C-65.10695312 470.67234375 -65.08890625 469.5946875 -65.0703125 468.484375 C-65.04710937 467.66453125 -65.02390625 466.8446875 -65 466 C-66.15113281 465.84144531 -67.30226562 465.68289063 -68.48828125 465.51953125 C-109.29548075 459.6503289 -146.08617104 443.36567181 -177 416 C-177.89460938 415.22785156 -178.78921875 414.45570313 -179.7109375 413.66015625 C-208.62392895 388.35016835 -227.01254094 352.51682401 -234 315 C-234.57967529 314.98541748 -235.15935059 314.97083496 -235.7565918 314.95581055 C-238.40087553 314.88101472 -241.04394002 314.78446102 -243.6875 314.6875 C-244.59951172 314.66494141 -245.51152344 314.64238281 -246.45117188 314.61914062 C-252.69788481 314.36927211 -256.4566493 313.5433507 -261 309 C-261.63046586 305.00704958 -261.84409692 302.48136215 -259.8203125 298.9296875 C-257.96954477 296.5298882 -256.01032279 294.26814582 -254 292 C-253.13119305 290.97773621 -252.2654629 289.95285189 -251.40234375 288.92578125 C-249.52851683 286.69646411 -247.64666843 284.47440924 -245.7578125 282.2578125 C-243.30211629 279.36766002 -240.89322836 276.44221264 -238.5 273.5 C-215.58018486 245.3636678 -215.58018486 245.3636678 -212.08203125 244.55859375 C-208.70417919 244.37836412 -206.0751966 244.30765592 -203.16796875 246.1796875 C-201.28781873 248.02020906 -199.64744357 249.94785834 -198 252 C-197.32453125 252.81082031 -196.6490625 253.62164062 -195.953125 254.45703125 C-194.44162891 256.2874423 -192.94220756 258.12787157 -191.453125 259.9765625 C-188.8457924 263.19005841 -186.18192888 266.34887334 -183.5 269.5 C-179.40076139 274.32942434 -175.32534232 279.17487059 -171.34765625 284.10546875 C-169.58639007 286.27701324 -167.80280473 288.41775557 -165.99609375 290.55078125 C-164.97597629 291.78336924 -163.95643796 293.01643678 -162.9375 294.25 C-162.44765625 294.8164624 -161.9578125 295.3829248 -161.453125 295.96655273 C-159.00174795 298.97677703 -158.01691341 300.84997178 -157.578125 304.7421875 C-158.08656789 308.66849647 -159.18376942 310.26423315 -162 313 C-165.46712111 314.15570704 -168.5414956 314.32835293 -172.1875 314.5625 C-174.09595703 314.68818359 -174.09595703 314.68818359 -176.04296875 314.81640625 C-177.01878906 314.87699219 -177.99460937 314.93757813 -179 315 C-166.53282632 352.72119216 -143.91703393 379.91565105 -108.7421875 398.25390625 C-94.77706985 405.26414779 -80.1269374 409.21826565 -65 413 C-65 340.73 -65 268.46 -65 194 C-91.4 194 -117.8 194 -145 194 C-150.62613681 188.37386319 -150.62613681 188.37386319 -150.63110352 184.64038086 C-150.64363663 183.8127977 -150.65616974 182.98521454 -150.66908264 182.1325531 C-150.65582443 181.25220901 -150.64256622 180.37186493 -150.62890625 179.46484375 C-150.63131821 178.5491713 -150.63373016 177.63349884 -150.63621521 176.69007874 C-150.63523799 174.7594061 -150.62187416 172.82870502 -150.59692383 170.89819336 C-150.56257013 167.94353153 -150.57628181 164.99185414 -150.59570312 162.03710938 C-150.58880564 160.15884144 -150.57913414 158.28058122 -150.56640625 156.40234375 C-150.57384605 155.07879128 -150.57384605 155.07879128 -150.58143616 153.72850037 C-150.4639699 147.61327037 -150.4639699 147.61327037 -148.08959961 144.47485352 C-144.21405801 141.73947008 -141.12788231 141.86383261 -136.52099609 141.88647461 C-135.3647599 141.88625557 -135.3647599 141.88625557 -134.18516541 141.8860321 C-131.63122771 141.88673011 -129.07736249 141.89451725 -126.5234375 141.90234375 C-124.75509684 141.90420833 -122.98675567 141.90563204 -121.21841431 141.90663147 C-116.55935241 141.9104535 -111.90032158 141.92028112 -107.24127197 141.93133545 C-102.48897726 141.94155631 -97.73667753 141.94613054 -92.984375 141.95117188 C-83.65623633 141.96190366 -74.32812075 141.97897633 -65 142 C-64.99918838 138.5842967 -65.06213056 135.172636 -65.13671875 131.7578125 C-65.13571167 130.79077393 -65.13470459 129.82373535 -65.13366699 128.82739258 C-65.21357677 122.90722619 -65.21357677 122.90722619 -68.73754883 118.35058594 C-71.85516683 116.80352398 -71.85516683 116.80352398 -75.375 115.5078125 C-87.7936824 110.34228297 -96.89970611 97.01521703 -102.3125 85.25 C-109.76736163 66.7245673 -109.68756437 48.13174835 -102.6015625 29.484375 C-94.36692199 11.56901077 -79.97383307 -0.59953414 -62.01953125 -7.95703125 C-41.1773604 -15.15607345 -18.35252952 -11.97520266 0 0 Z M-58.5625 41.0234375 C-63.28136826 47.51188136 -65.2454778 53.99874871 -64 62 C-61.6594031 69.76026781 -57.54592332 75.80329512 -50.4375 79.875 C-43.76154111 82.93026796 -37.24002969 83.35561513 -30.2265625 81.11328125 C-23.06234868 77.87540083 -18.99634483 73.46033105 -15.125 66.75 C-12.82305247 59.07684156 -13.14841918 52.09699798 -16.80859375 44.9296875 C-20.54378278 38.87990592 -26.67874067 34.13441254 -33.57421875 32.32421875 C-43.17882694 30.96779049 -52.05880017 33.67550741 -58.5625 41.0234375 Z " fill="#000000" transform="translate(296,11)"/>
</svg>
